<svg width="100%" height="100%" viewBox="0 0 56 57" fill="none" xmlns="http://www.w3.org/2000/svg">
<path fill-rule="evenodd" clip-rule="evenodd" d="M46.0833 28.5C46.0833 27.5335 45.2998 26.75 44.3333 26.75H11.6666C10.7001 26.75 9.91663 27.5335 9.91663 28.5C9.91663 29.4665 10.7001 30.25 11.6666 30.25H44.3333C45.2998 30.25 46.0833 29.4665 46.0833 28.5Z" fill="white"/>
<path fill-rule="evenodd" clip-rule="evenodd" d="M46.0833 16.8333C46.0833 15.8668 45.2998 15.0833 44.3333 15.0833H11.6666C10.7001 15.0833 9.91663 15.8668 9.91663 16.8333C9.91663 17.7998 10.7001 18.5833 11.6666 18.5833H44.3333C45.2998 18.5833 46.0833 17.7998 46.0833 16.8333Z" fill="white"/>
<path fill-rule="evenodd" clip-rule="evenodd" d="M46.0833 40.1667C46.0833 39.2002 45.2998 38.4167 44.3333 38.4167H11.6666C10.7001 38.4167 9.91663 39.2002 9.91663 40.1667C9.91663 41.1332 10.7001 41.9167 11.6666 41.9167H44.3333C45.2998 41.9167 46.0833 41.1332 46.0833 40.1667Z" fill="white"/>
</svg>
