<svg width="100%" height="100%" viewBox="0 0 24 25" fill="none" xmlns="http://www.w3.org/2000/svg">
<path fill-rule="evenodd" clip-rule="evenodd" d="M12 12.5992C11.3096 12.5992 10.75 13.1589 10.75 13.8492C10.75 14.5396 11.3096 15.0992 12 15.0992C12.6904 15.0992 13.25 14.5396 13.25 13.8492C13.25 13.1589 12.6904 12.5992 12 12.5992ZM9.25 13.8492C9.25 12.3304 10.4812 11.0992 12 11.0992C13.5188 11.0992 14.75 12.3304 14.75 13.8492C14.75 15.368 13.5188 16.5992 12 16.5992C10.4812 16.5992 9.25 15.368 9.25 13.8492Z" fill="white"/>
<path fill-rule="evenodd" clip-rule="evenodd" d="M12 8.59921C10.9617 8.59921 9.94662 8.90712 9.08326 9.484C8.2199 10.0609 7.547 10.8808 7.14964 11.8401C6.75228 12.7994 6.64831 13.855 6.85088 14.8734C7.05345 15.8918 7.55347 16.8273 8.28769 17.5615C8.58059 17.8544 8.58059 18.3293 8.28769 18.6222C7.9948 18.9151 7.51993 18.9151 7.22703 18.6222C6.28303 17.6782 5.64015 16.4754 5.3797 15.1661C5.11925 13.8567 5.25292 12.4995 5.76382 11.2661C6.27471 10.0327 7.13987 8.97849 8.2499 8.23679C9.35994 7.49509 10.665 7.09921 12 7.09921C13.335 7.09921 14.6401 7.49509 15.7501 8.23679C16.8601 8.97849 17.7253 10.0327 18.2362 11.2661C18.7471 12.4995 18.8808 13.8567 18.6203 15.1661C18.3599 16.4754 17.717 17.6782 16.773 18.6222C16.4801 18.9151 16.0052 18.9151 15.7123 18.6222C15.4194 18.3293 15.4194 17.8544 15.7123 17.5615C16.4465 16.8273 16.9466 15.8918 17.1491 14.8734C17.3517 13.855 17.2477 12.7994 16.8504 11.8401C16.453 10.8808 15.7801 10.0609 14.9167 9.484C14.0534 8.90712 13.0384 8.59921 12 8.59921Z" fill="white"/>
<path fill-rule="evenodd" clip-rule="evenodd" d="M12.0001 4.69974C10.1905 4.69974 8.42152 5.23635 6.9169 6.2417C5.41227 7.24706 4.23956 8.67602 3.54705 10.3479C2.85455 12.0197 2.67336 13.8594 3.0264 15.6342C3.37943 17.409 4.25083 19.0393 5.53041 20.3189C5.82331 20.6118 5.82331 21.0867 5.53041 21.3796C5.23752 21.6724 4.76265 21.6724 4.46975 21.3796C2.9804 19.8902 1.96613 17.9926 1.55522 15.9268C1.14431 13.861 1.3552 11.7198 2.16123 9.77384C2.96727 7.8279 4.33224 6.16468 6.08354 4.9945C7.83484 3.82432 9.89381 3.19974 12.0001 3.19974C14.1063 3.19974 16.1653 3.82432 17.9166 4.9945C19.6679 6.16468 21.0329 7.8279 21.8389 9.77384C22.645 11.7198 22.8559 13.861 22.4449 15.9268C22.034 17.9926 21.0198 19.8902 19.5304 21.3796C19.2375 21.6724 18.7626 21.6724 18.4697 21.3796C18.1768 21.0867 18.1768 20.6118 18.4697 20.3189C19.7493 19.0393 20.6207 17.409 20.9738 15.6342C21.3268 13.8594 21.1456 12.0197 20.4531 10.3479C19.7606 8.67602 18.5879 7.24706 17.0833 6.2417C15.5786 5.23635 13.8097 4.69974 12.0001 4.69974Z" fill="white"/>
</svg>
