<svg width="100%" height="100%" viewBox="0 0 25 25" fill="none" xmlns="http://www.w3.org/2000/svg">
<path d="M8.5 10C7.80964 10 7.25 10.5596 7.25 11.25C7.25 11.9404 7.80964 12.5 8.5 12.5C9.19036 12.5 9.75 11.9404 9.75 11.25C9.75 10.5596 9.19036 10 8.5 10Z" fill="white"/>
<path d="M12.5 10C11.8096 10 11.25 10.5596 11.25 11.25C11.25 11.9404 11.8096 12.5 12.5 12.5C13.1904 12.5 13.75 11.9404 13.75 11.25C13.75 10.5596 13.1904 10 12.5 10Z" fill="white"/>
<path d="M15.25 11.25C15.25 10.5596 15.8096 10 16.5 10C17.1904 10 17.75 10.5596 17.75 11.25C17.75 11.9404 17.1904 12.5 16.5 12.5C15.8096 12.5 15.25 11.9404 15.25 11.25Z" fill="white"/>
<path fill-rule="evenodd" clip-rule="evenodd" d="M16.6007 5.09279C13.9065 4.86303 11.1983 4.8497 8.50194 5.05292L8.30871 5.06748C5.73741 5.26128 3.75 7.40411 3.75 9.98271V18.5C3.75 18.7639 3.88867 19.0083 4.11515 19.1437C4.34163 19.2791 4.62261 19.2856 4.85504 19.1606L8.76583 17.0589C8.94774 16.9612 9.15104 16.91 9.35756 16.91H18.334C19.4661 16.91 20.4362 16.1006 20.6392 14.9869C21.0505 12.7296 21.0829 10.4197 20.7353 8.15175L20.6329 7.48342C20.4464 6.26667 19.451 5.33586 18.2245 5.23126L16.6007 5.09279ZM8.61468 6.54868C11.231 6.35148 13.859 6.36442 16.4733 6.58737L18.097 6.72584C18.6334 6.77158 19.0686 7.17862 19.1502 7.71069L19.2526 8.37902C19.575 10.4823 19.5449 12.6246 19.1635 14.718C19.0904 15.1188 18.7413 15.41 18.334 15.41H9.35756C8.90322 15.41 8.45596 15.5226 8.05575 15.7376L5.25 17.2455V9.98271C5.25 8.18881 6.63262 6.69806 8.42144 6.56324L8.61468 6.54868Z" fill="white"/>
<circle cx="19.2205" cy="6.82357" r="2.67227" fill="#FF0000"/>
</svg>
